<svg xmlns="http://www.w3.org/2000/svg" width="760" height="620" viewBox="0 0 760 620">
  <defs>
    <linearGradient id="g31" x1="0" y1="0" x2="760" y2="620" gradientUnits="userSpaceOnUse">
      <stop offset="0" stop-color="#00252C"/>
      <stop offset="1" stop-color="#91D089"/>
    </linearGradient>
    <radialGradient id="b31" cx="50%" cy="50%" r="50%">
      <stop offset="0" stop-color="#ffffff"/>
      <stop offset="1" stop-color="#ffffff" stop-opacity="0"/>
    </radialGradient>
  </defs>
  <rect width="760" height="620" fill="url(#g31)"/>
  <g><line x1="-620" y1="0" x2="-1240" y2="620" stroke="#ffffff" stroke-opacity="0.045" stroke-width="1"/><line x1="-544" y1="0" x2="-1164" y2="620" stroke="#ffffff" stroke-opacity="0.045" stroke-width="1"/><line x1="-468" y1="0" x2="-1088" y2="620" stroke="#ffffff" stroke-opacity="0.045" stroke-width="1"/><line x1="-392" y1="0" x2="-1012" y2="620" stroke="#ffffff" stroke-opacity="0.045" stroke-width="1"/><line x1="-316" y1="0" x2="-936" y2="620" stroke="#ffffff" stroke-opacity="0.045" stroke-width="1"/><line x1="-240" y1="0" x2="-860" y2="620" stroke="#ffffff" stroke-opacity="0.045" stroke-width="1"/><line x1="-164" y1="0" x2="-784" y2="620" stroke="#ffffff" stroke-opacity="0.045" stroke-width="1"/><line x1="-88" y1="0" x2="-708" y2="620" stroke="#ffffff" stroke-opacity="0.045" stroke-width="1"/><line x1="-12" y1="0" x2="-632" y2="620" stroke="#ffffff" stroke-opacity="0.045" stroke-width="1"/><line x1="64" y1="0" x2="-556" y2="620" stroke="#ffffff" stroke-opacity="0.045" stroke-width="1"/><line x1="140" y1="0" x2="-480" y2="620" stroke="#ffffff" stroke-opacity="0.045" stroke-width="1"/><line x1="216" y1="0" x2="-404" y2="620" stroke="#ffffff" stroke-opacity="0.045" stroke-width="1"/><line x1="292" y1="0" x2="-328" y2="620" stroke="#ffffff" stroke-opacity="0.045" stroke-width="1"/><line x1="368" y1="0" x2="-252" y2="620" stroke="#ffffff" stroke-opacity="0.045" stroke-width="1"/><line x1="444" y1="0" x2="-176" y2="620" stroke="#ffffff" stroke-opacity="0.045" stroke-width="1"/><line x1="520" y1="0" x2="-100" y2="620" stroke="#ffffff" stroke-opacity="0.045" stroke-width="1"/><line x1="596" y1="0" x2="-24" y2="620" stroke="#ffffff" stroke-opacity="0.045" stroke-width="1"/><line x1="672" y1="0" x2="52" y2="620" stroke="#ffffff" stroke-opacity="0.045" stroke-width="1"/><line x1="748" y1="0" x2="128" y2="620" stroke="#ffffff" stroke-opacity="0.045" stroke-width="1"/><line x1="824" y1="0" x2="204" y2="620" stroke="#ffffff" stroke-opacity="0.045" stroke-width="1"/><line x1="900" y1="0" x2="280" y2="620" stroke="#ffffff" stroke-opacity="0.045" stroke-width="1"/><line x1="976" y1="0" x2="356" y2="620" stroke="#ffffff" stroke-opacity="0.045" stroke-width="1"/><line x1="1052" y1="0" x2="432" y2="620" stroke="#ffffff" stroke-opacity="0.045" stroke-width="1"/><line x1="1128" y1="0" x2="508" y2="620" stroke="#ffffff" stroke-opacity="0.045" stroke-width="1"/><line x1="1204" y1="0" x2="584" y2="620" stroke="#ffffff" stroke-opacity="0.045" stroke-width="1"/><line x1="1280" y1="0" x2="660" y2="620" stroke="#ffffff" stroke-opacity="0.045" stroke-width="1"/><line x1="1356" y1="0" x2="736" y2="620" stroke="#ffffff" stroke-opacity="0.045" stroke-width="1"/></g>
  <circle cx="340" cy="386" r="172" fill="url(#b31)" opacity="0.14" /><circle cx="116" cy="16" r="267" fill="url(#b31)" opacity="0.16" /><circle cx="659" cy="607" r="185" fill="url(#b31)" opacity="0.12" /><circle cx="326" cy="453" r="186" fill="url(#b31)" opacity="0.15" />
  <text x="24" y="596" font-family="DM Sans, Arial, sans-serif" font-size="13.68" fill="#ffffff" fill-opacity="0.55">CASE STUDY 01</text>
</svg>